<svg width="35" height="29" viewBox="0 0 35 29" fill="none" xmlns="http://www.w3.org/2000/svg">
<path d="M33.6 0.827148H1.4C0.625625 0.827148 0 1.31305 0 1.91447V26.923C0 27.5244 0.625625 28.0103 1.4 28.0103H33.6C34.3744 28.0103 35 27.5244 35 26.923V1.91447C35 1.31305 34.3744 0.827148 33.6 0.827148ZM17.5481 14.626L9.14812 20.0966C8.92062 20.2461 8.575 20.1204 8.575 19.8893V17.7588C8.575 17.6807 8.62312 17.6025 8.70187 17.5516L13.5056 14.4187L8.70187 11.2859C8.66166 11.2612 8.6293 11.2297 8.6073 11.1937C8.5853 11.1578 8.57425 11.1184 8.575 11.0786V8.94811C8.575 8.71705 8.92062 8.59133 9.14812 8.74084L17.5481 14.208C17.7187 14.3168 17.7187 14.5173 17.5481 14.626ZM26.425 19.8893C26.425 20.0388 26.2762 20.1611 26.0969 20.1611H18.0031C17.8237 20.1611 17.675 20.0388 17.675 19.8893V18.2583C17.675 18.1088 17.8237 17.9865 18.0031 17.9865H26.0969C26.2762 17.9865 26.425 18.1088 26.425 18.2583V19.8893Z" fill="#82E7FD"/>
</svg>
